<?xml version="1.0" encoding="UTF-8" standalone="no"?>
<!DOCTYPE svg PUBLIC "-//W3C//DTD SVG 1.1//EN" "http://www.w3.org/Graphics/SVG/1.1/DTD/svg11.dtd">
<svg width="100%" height="100%" viewBox="0 0 512 512" version="1.1" xmlns="http://www.w3.org/2000/svg" xmlns:xlink="http://www.w3.org/1999/xlink" xml:space="preserve" xmlns:serif="http://www.serif.com/" style="fill-rule:evenodd;clip-rule:evenodd;stroke-linejoin:round;stroke-miterlimit:1.41421;">
    <g>
        <path d="M384.164,290.844C393.805,277.156 396.914,259.891 392.633,243.703L348.899,108.187L163.117,108.187L119.367,243.703C115.086,259.891 118.195,277.156 127.836,290.844L232.445,439.188L232.445,462.876C226.086,467.907 222.023,475.689 222.023,484.439C222.023,499.658 234.351,512.002 249.586,512.002L249.586,463.158L249.586,456.877L249.586,264.266C239.211,261.438 231.586,251.969 231.586,240.703C231.586,227.219 242.508,216.281 256.008,216.281C269.492,216.281 280.43,227.219 280.43,240.703C280.43,251.969 272.789,261.437 262.43,264.25L262.43,512C277.649,512 289.993,499.656 289.993,484.437C289.993,475.687 285.915,467.906 279.555,462.874L279.555,439.186L384.164,290.844Z" style="fill:rgb(201,202,204);fill-rule:nonzero;"/>
        <rect x="157.086" y="0" width="197.844" height="88.047" style="fill:rgb(201,202,204);"/>
    </g>
</svg>
