<?xml version="1.0" encoding="UTF-8" standalone="no"?>
<!DOCTYPE svg PUBLIC "-//W3C//DTD SVG 1.1//EN" "http://www.w3.org/Graphics/SVG/1.1/DTD/svg11.dtd">
<svg width="100%" height="100%" viewBox="0 0 512 512" version="1.1" xmlns="http://www.w3.org/2000/svg" xmlns:xlink="http://www.w3.org/1999/xlink" xml:space="preserve" xmlns:serif="http://www.serif.com/" style="fill-rule:evenodd;clip-rule:evenodd;stroke-linejoin:round;stroke-miterlimit:1.41421;">
    <g>
        <path d="M489.401,64.386L489.401,24.145L465.256,24.145L280.143,24.145L280.143,0L231.853,0L231.853,24.145L46.743,24.145L22.599,24.145L22.599,64.386L46.744,64.386L46.744,313.882L22.599,313.882L22.599,354.123L489.402,354.123L489.402,313.882L465.257,313.882L465.257,64.386L489.401,64.386ZM78.937,313.882L78.937,64.386L433.064,64.386L433.064,313.882L78.937,313.882Z" style="fill:rgb(201,202,204);fill-rule:nonzero;"/>
        <path d="M333.797,459.686C333.027,459.686 332.304,459.851 331.545,459.914L273.117,398.68L272.614,398.672L273.117,397.981L272.095,397.981L272.095,362.172L239.902,362.172L239.902,399.395L180.02,459.867C179.407,459.827 178.818,459.687 178.196,459.687C163.75,459.687 152.039,471.397 152.039,485.844C152.039,500.29 163.75,512.001 178.196,512.001C192.642,512.001 204.353,500.29 204.353,485.844C204.353,481.741 203.323,477.913 201.641,474.463L256.651,420.727L310.159,474.817C308.587,478.181 307.644,481.891 307.644,485.845C307.644,500.291 319.355,512.002 333.797,512.002C348.243,512.002 359.954,500.291 359.954,485.845C359.953,471.396 348.242,459.686 333.797,459.686Z" style="fill:rgb(201,202,204);fill-rule:nonzero;"/>
        <path d="M230.611,155.416C218.539,140.852 200.257,131.507 179.877,131.507C179.013,131.507 178.015,131.507 176.921,131.578L176.804,131.578L176.804,131.586C141.954,133.221 114.163,161.964 114.155,197.229C114.163,233.517 143.597,262.951 179.877,262.959C216.165,262.951 245.599,233.517 245.607,197.229C245.615,181.345 239.94,166.781 230.634,155.439L230.611,155.416ZM219.341,160.8L180.185,195.917L180.185,143.478C195.636,143.557 209.532,150.245 219.341,160.8Z" style="fill:rgb(201,202,204);fill-rule:nonzero;"/>
        <rect x="283.161" y="135.532" width="96.583" height="24.145" style="fill:rgb(201,202,204);"/>
        <rect x="283.161" y="183.821" width="96.583" height="24.145" style="fill:rgb(201,202,204);"/>
        <rect x="283.161" y="232.111" width="64.39" height="24.145" style="fill:rgb(201,202,204);"/>
    </g>
</svg>
